<?xml version="1.0" standalone="no"?>
<!DOCTYPE svg PUBLIC "-//W3C//DTD SVG 20010904//EN"
 "http://www.w3.org/TR/2001/REC-SVG-20010904/DTD/svg10.dtd">
<svg version="1.0" xmlns="http://www.w3.org/2000/svg"
 width="16.000000pt" height="16.000000pt" viewBox="0 0 16.000000 16.000000"
 preserveAspectRatio="xMidYMid meet">
<metadata>
Created by potrace 1.11, written by Peter Selinger 2001-2013
</metadata>
<g transform="translate(0.000000,16.000000) scale(0.002286,-0.002286)"
fill="#000000" stroke="none">
<path d="M2010 6982 c-130 -49 -217 -142 -249 -267 -8 -27 -11 -506 -11 -1471
0 -1594 -5 -1473 69 -1583 43 -63 123 -122 196 -144 46 -14 -25 -16 -826 -16
-791 -1 -880 -3 -925 -18 -121 -41 -207 -127 -247 -247 -15 -45 -17 -180 -17
-1490 l1 -1441 24 -60 c34 -82 74 -134 136 -177 106 -72 6 -68 1585 -68 1509
0 1465 -1 1559 47 84 43 176 169 187 256 2 15 7 29 10 33 4 3 5 -2 4 -13 -2
-10 4 -38 12 -63 40 -116 128 -204 246 -244 46 -15 173 -16 1500 -14 l1451 3
65 32 c104 50 172 130 205 239 13 43 15 236 12 1494 l-2 1445 -32 65 c-17 36
-51 85 -75 109 -45 46 -144 98 -200 105 -18 3 -420 5 -893 6 -839 1 -859 2
-808 19 125 43 210 132 249 260 11 38 14 289 14 1482 0 790 -3 1439 -7 1443
-4 3 -8 16 -10 28 -6 36 -55 116 -97 159 -23 22 -70 55 -106 72 l-65 32 -1455
2 c-1340 1 -1459 0 -1500 -15z m1756 -3498 c-123 -38 -215 -133 -252 -260
l-17 -59 -12 50 c-27 116 -105 206 -220 255 l-70 29 310 0 c291 0 307 -1 261
-15z"/>
</g>
</svg>
